# Blender 3.4.1
# www.blender.org
mtllib grass.mtl
o Plane
v 0.000000 0.000000 0.000000
v 0.000000 2.400000 0.000000
v 0.054631 2.000000 -0.023572
v 0.078710 1.600000 -0.042026
v 0.097022 1.200000 -0.042026
v 0.078710 0.800000 -0.042026
v 0.054631 0.400000 -0.023572
v -0.054631 0.400000 -0.023572
v -0.078710 0.800000 -0.042026
v -0.097022 1.200000 -0.042026
v -0.078710 1.600000 -0.042026
v -0.054631 2.000000 -0.023572
v 0.000000 0.400000 0.000000
v 0.000000 0.800000 0.000000
v 0.000000 1.200000 0.000000
v 0.000000 1.600000 0.000000
v 0.000000 2.000000 0.000000
vn 0.3962 -0.0000 -0.9182
vn 0.4710 -0.0000 -0.8821
vn -0.4710 0.0123 -0.8821
vn -0.3974 -0.0182 -0.9175
vn -0.3974 0.0182 -0.9175
vn -0.4710 -0.0123 -0.8821
vn -0.3962 -0.0000 -0.9182
vn 0.4710 -0.0123 -0.8821
vn 0.3974 0.0182 -0.9175
vn 0.3974 -0.0182 -0.9175
vn 0.4710 0.0123 -0.8821
vn -0.4710 -0.0000 -0.8821
vt 1.000000 0.000000
vt 0.500000 0.000000
vt 0.500000 1.000000
vt 0.000000 1.000000
vt 0.000000 0.833333
vt 0.000000 0.666667
vt 0.000000 0.500000
vt 0.000000 0.333333
vt 0.000000 0.166667
vt 1.000000 0.166667
vt 1.000000 0.333333
vt 1.000000 0.500000
vt 1.000000 0.666667
vt 1.000000 0.833333
vt 0.500000 0.166667
vt 0.500000 0.333333
vt 0.500000 0.500000
vt 0.500000 0.666667
vt 0.500000 0.833333
s 0
f 17/19/1 12/14/1 2/3/1
f 1/1/1 8/10/1 13/15/1
f 8/10/1 14/16/1 13/15/1
f 9/11/2 15/17/2 14/16/2
f 15/17/2 11/13/2 16/18/2
f 16/18/1 12/14/1 17/19/1
f 16/18/3 3/5/3 4/6/3
f 15/17/4 4/6/4 5/7/4
f 6/8/5 15/17/5 5/7/5
f 7/9/6 14/16/6 6/8/6
f 1/2/7 13/15/7 7/9/7
f 3/5/7 17/19/7 2/4/7
f 8/10/8 9/11/8 14/16/8
f 9/11/9 10/12/9 15/17/9
f 15/17/10 10/12/10 11/13/10
f 16/18/11 11/13/11 12/14/11
f 16/18/7 17/19/7 3/5/7
f 15/17/12 16/18/12 4/6/12
f 6/8/12 14/16/12 15/17/12
f 7/9/7 13/15/7 14/16/7
